# This file uses centimeters as units for non-parametric coordinates.

mtllib Arc.mtl
g default
v -250.000000 272.914856 -198.464706
v 250.000000 272.914856 -198.464706
v -250.000000 272.914856 -134.501465
v 250.000000 272.914856 -134.501465
v -250.000000 293.548462 -134.501465
v 250.000000 293.548462 -134.501465
v -250.000000 293.548462 -157.977570
v 250.000000 293.548462 -157.977570
v -250.000000 368.753601 -139.506134
v 250.000000 368.753601 -139.506134
v -250.000000 416.251526 -95.306656
v 250.000000 416.251526 -95.306656
v -250.000000 452.534607 -40.552048
v 250.000000 452.534607 -40.552048
v -250.000000 457.152466 13.542816
v 250.000000 457.152466 13.542816
vt 0.000000 0.000000
vt 1.000000 0.000000
vt 1.000000 1.000000
vt 0.000000 1.000000
vt 0.000000 0.000000
vt 1.000000 0.000000
vt 1.000000 1.000000
vt 0.000000 1.000000
vt 0.000000 0.000000
vt 1.000000 0.000000
vt 1.000000 1.000000
vt 0.000000 1.000000
vt 0.000000 0.000000
vt 1.000000 0.000000
vt 1.000000 1.000000
vt 0.000000 1.000000
vt 0.000000 0.000000
vt 1.000000 0.000000
vt 1.000000 1.000000
vt 0.000000 1.000000
vt 0.000000 0.000000
vt 1.000000 0.000000
vt 1.000000 1.000000
vt 0.000000 1.000000
vt 0.000000 0.000000
vt 1.000000 0.000000
vt 1.000000 1.000000
vt 0.000000 1.000000
vn 0.000000 -1.000000 0.000000
vn 0.000000 -1.000000 0.000000
vn 0.000000 -1.000000 0.000000
vn 0.000000 -1.000000 0.000000
vn 0.000000 0.000000 1.000000
vn 0.000000 0.000000 1.000000
vn 0.000000 0.000000 1.000000
vn 0.000000 0.000000 1.000000
vn 0.000000 1.000000 0.000000
vn 0.000000 1.000000 0.000000
vn 0.000000 1.000000 0.000000
vn 0.000000 1.000000 0.000000
vn 0.000000 -0.238525 0.971136
vn 0.000000 -0.238525 0.971136
vn 0.000000 -0.238525 0.971136
vn 0.000000 -0.238525 0.971136
vn 0.000000 -0.681231 0.732069
vn 0.000000 -0.681231 0.732069
vn 0.000000 -0.681231 0.732069
vn 0.000000 -0.681231 0.732069
vn 0.000000 -0.833593 0.552379
vn 0.000000 -0.833593 0.552379
vn 0.000000 -0.833593 0.552379
vn 0.000000 -0.833593 0.552379
vn 0.000000 -0.996376 0.085057
vn 0.000000 -0.996376 0.085057
vn 0.000000 -0.996376 0.085057
vn 0.000000 -0.996376 0.085057
g Arc arc
usemtl pPlane2SG
f 1/1/1 2/2/2 4/3/3 3/4/4
f 3/5/5 4/6/6 6/7/7 5/8/8
f 5/9/9 6/10/10 8/11/11 7/12/12
f 7/13/13 8/14/14 10/15/15 9/16/16
f 9/17/17 10/18/18 12/19/19 11/20/20
f 11/21/21 12/22/22 14/23/23 13/24/24
f 13/25/25 14/26/26 16/27/27 15/28/28
