# This file uses centimeters as units for non-parametric coordinates.

mtllib Crystals.mtl
g default
v -2.609010 3.117725 0.263896
v -2.648310 2.795036 -0.346793
v -2.920744 2.526423 0.448302
v -2.850795 1.955140 0.730678
v -2.645112 1.925345 0.802136
v -2.318503 3.171213 0.320871
v -2.280912 2.678835 0.557872
v -2.029662 2.923625 -0.197394
v -1.968123 3.016855 -0.028777
v -2.049815 1.909611 -0.634613
v -3.108180 0.989718 0.481402
v -3.326288 1.463370 -0.062404
v -2.108275 2.504644 0.649350
v -1.783380 2.520582 0.175955
v -1.834697 1.320535 -0.400573
v -1.719358 1.722368 0.003665
v -1.875724 0.552986 0.116967
v -2.286443 0.255707 -0.529826
v -2.204778 0.034365 -0.184015
v -1.935781 0.362703 -0.113589
v -1.933756 0.602225 -0.352624
v -2.328572 1.081785 0.784934
v -2.292279 1.075219 0.777417
v -2.911274 0.278851 0.441029
v -2.870953 0.081386 0.335411
v -2.110775 0.482932 0.453683
v -2.486548 -0.046039 0.226190
v -2.883882 2.175817 -0.647832
v -3.057186 0.655949 -0.585783
v -2.322127 1.674954 -0.776607
v -2.516460 0.463108 -0.713594
v -3.329116 1.413370 -0.174764
v -3.147134 0.628632 -0.451702
v -3.109860 1.718567 -0.587248
vt 0.045418 0.668148
vt 0.164337 0.743638
vt 0.113077 0.844062
vt 0.057585 0.815589
vt 0.282820 0.797420
vt 0.209807 0.888727
vt 0.682401 0.736211
vt 0.616884 0.641002
vt 0.638693 0.606244
vt 0.207286 0.717923
vt 0.299494 0.483932
vt 0.419133 0.681802
vt 0.671211 0.405736
vt 0.523438 0.558599
vt 0.523439 0.372646
vt 0.618895 0.290683
vt 0.795157 0.122369
vt 0.640309 0.143312
vt 0.730098 0.069515
vt 0.539225 0.110020
vt 0.602976 0.078264
vt 0.392838 0.393057
vt 0.292805 0.481697
vt 0.523183 0.368481
vt 0.476593 0.423323
vt 0.171121 0.585676
vt 0.754453 0.581548
vt 0.729500 0.364462
vt 0.811540 0.470359
vt 0.167686 0.384810
vt 0.079380 0.202902
vt 0.293149 0.248663
vt 0.273646 0.291131
vt 0.233339 0.029178
vt 0.256797 0.000127
vt 0.390908 0.000127
vt 0.133604 0.570429
vt 0.752686 0.725742
vt 0.663511 0.000127
vt 0.000127 0.376622
vt 0.013080 0.399820
vt 0.388676 0.243935
vt 0.916005 0.182174
vt 0.953988 0.185186
vt 0.984157 0.381081
vt 0.870354 0.400114
vt 0.507247 0.266675
vt 0.999873 0.403463
vt 0.913333 0.674918
vt 0.445529 0.061446
vt 0.462062 0.155460
vn -0.247196 0.404865 0.880329
vn -0.247196 0.404865 0.880329
vn -0.247196 0.404865 0.880329
vn -0.247196 0.404865 0.880329
vn 0.676420 0.421865 0.603726
vn 0.676420 0.421865 0.603726
vn 0.676420 0.421865 0.603726
vn 0.676420 0.421865 0.603726
vn -0.072045 0.883766 -0.462350
vn -0.072045 0.883766 -0.462350
vn -0.072045 0.883766 -0.462350
vn 0.824098 -0.055577 0.563715
vn 0.824098 -0.055577 0.563715
vn 0.824098 -0.055577 0.563715
vn 0.824098 -0.055577 0.563715
vn 0.894927 0.161557 -0.415939
vn 0.894927 0.161557 -0.415939
vn 0.894927 0.161557 -0.415939
vn 0.894927 0.161557 -0.415939
vn 0.544432 -0.130392 -0.828609
vn 0.544432 -0.130392 -0.828609
vn 0.544432 -0.130392 -0.828609
vn 0.544432 -0.130392 -0.828609
vn 0.980115 -0.144258 -0.136249
vn 0.980115 -0.144258 -0.136249
vn 0.980115 -0.144258 -0.136249
vn 0.980115 -0.144258 -0.136249
vn 0.101491 -0.453016 0.885707
vn 0.101491 -0.453016 0.885707
vn 0.101491 -0.453016 0.885707
vn 0.687524 -0.637749 0.347256
vn 0.687524 -0.637749 0.347256
vn 0.687524 -0.637749 0.347256
vn 0.212837 0.059978 0.975245
vn 0.212837 0.059978 0.975245
vn 0.212837 0.059978 0.975245
vn 0.212837 0.059978 0.975245
vn 0.138832 0.389776 -0.910385
vn 0.138832 0.389776 -0.910385
vn 0.138832 0.389776 -0.910385
vn 0.138832 0.389776 -0.910385
vn 0.138834 0.389777 -0.910384
vn 0.138834 0.389777 -0.910384
vn 0.138834 0.389777 -0.910384
vn -0.951397 -0.271760 0.144881
vn -0.951397 -0.271760 0.144881
vn -0.951397 -0.271760 0.144881
vn -0.951397 -0.271760 0.144881
vn -0.391674 -0.814168 -0.428629
vn -0.391674 -0.814167 -0.428629
vn -0.391674 -0.814167 -0.428629
vn 0.894927 0.161556 -0.415938
vn 0.894927 0.161556 -0.415939
vn 0.894927 0.161556 -0.415938
vn 0.894927 0.161556 -0.415939
vn -0.247194 0.404865 0.880329
vn -0.247194 0.404865 0.880329
vn -0.247194 0.404865 0.880329
vn 0.539977 0.742914 0.395605
vn 0.539977 0.742914 0.395605
vn 0.539977 0.742914 0.395605
vn -0.130669 -0.308700 0.942141
vn -0.130669 -0.308700 0.942141
vn -0.130669 -0.308700 0.942141
vn -0.130669 -0.308700 0.942141
vn -0.072042 0.883767 -0.462347
vn -0.072042 0.883767 -0.462347
vn -0.072042 0.883767 -0.462347
vn -0.072042 0.883767 -0.462348
vn 0.824097 -0.055577 0.563715
vn 0.824097 -0.055577 0.563715
vn 0.824097 -0.055577 0.563715
vn 0.824097 -0.055577 0.563715
vn 0.724724 -0.489789 -0.484646
vn 0.724724 -0.489789 -0.484646
vn 0.724724 -0.489789 -0.484646
vn 0.724724 -0.489789 -0.484646
vn 0.980115 -0.144259 -0.136250
vn 0.980115 -0.144259 -0.136250
vn 0.980115 -0.144259 -0.136250
vn 0.544431 -0.130391 -0.828609
vn 0.544431 -0.130391 -0.828609
vn 0.544431 -0.130391 -0.828609
vn 0.544431 -0.130391 -0.828609
vn -0.343613 -0.147850 0.927400
vn -0.343613 -0.147850 0.927400
vn -0.343613 -0.147850 0.927400
vn -0.343613 -0.147850 0.927400
vn -0.951397 -0.271761 0.144881
vn -0.951397 -0.271761 0.144881
vn -0.951397 -0.271761 0.144881
vn -0.951397 -0.271761 0.144881
vn -0.882155 0.117423 0.456086
vn -0.882155 0.117423 0.456086
vn -0.882155 0.117423 0.456086
vn -0.882155 0.117423 0.456086
vn 0.101490 -0.453012 0.885709
vn 0.101490 -0.453012 0.885709
vn 0.101490 -0.453012 0.885709
vn 0.101490 -0.453012 0.885709
vn -0.860962 -0.033677 -0.507554
vn -0.860962 -0.033677 -0.507554
vn -0.860962 -0.033677 -0.507554
vn -0.860962 -0.033677 -0.507554
vn 0.687524 -0.637750 0.347256
vn 0.687524 -0.637750 0.347256
vn 0.687524 -0.637750 0.347256
vn 0.687524 -0.637750 0.347256
vn -0.892794 0.419474 -0.164195
vn -0.892794 0.419474 -0.164195
vn -0.892794 0.419474 -0.164195
vn -0.892794 0.419474 -0.164195
vn -0.892794 0.419475 -0.164196
vn -0.892794 0.419475 -0.164196
vn -0.892794 0.419475 -0.164196
vn -0.892794 0.419475 -0.164196
vn -0.892794 0.419473 -0.164196
vn -0.892794 0.419473 -0.164196
vn -0.892794 0.419473 -0.164196
vn -0.234386 -0.012958 -0.972057
vn -0.234386 -0.012958 -0.972057
vn -0.234386 -0.012958 -0.972057
vn -0.234385 -0.012959 -0.972058
vn -0.234385 -0.012959 -0.972057
vn -0.234385 -0.012959 -0.972057
vn -0.234385 -0.012959 -0.972057
vn -0.391673 -0.814169 -0.428626
vn -0.391673 -0.814169 -0.428627
vn -0.391673 -0.814169 -0.428627
vn -0.391673 -0.814169 -0.428627
vn -0.391674 -0.814169 -0.428626
vn -0.391674 -0.814169 -0.428626
vn -0.391674 -0.814169 -0.428626
vn -0.211036 0.392248 0.895324
vn -0.211036 0.392248 0.895324
vn -0.211036 0.392248 0.895324
vn -0.211036 0.392248 0.895324
vn -0.391674 -0.814169 -0.428627
vn -0.391674 -0.814169 -0.428627
vn -0.391674 -0.814169 -0.428627
g polySurface1
usemtl initialShadingGroup
f 3/1/1 7/2/2 6/3/3 1/4/4
f 6/3/5 7/2/6 14/5/7 9/6/8
f 6/7/9 9/8/10 8/9/11
f 13/10/12 23/11/13 16/12/14 14/5/15
f 10/13/16 14/14/17 16/15/18 15/16/19
f 31/17/20 15/16/21 21/18/22 18/19/23
f 21/18/24 15/16/25 17/20/26 20/21/27
f 26/22/28 23/11/29 22/23/30
f 20/24/31 17/25/32 26/22/33
f 23/11/34 13/10/35 5/26/36 22/23/37
f 2/27/38 10/13/39 30/28/40 28/29/41
f 2/27/42 8/9/43 10/13/44
f 11/30/45 33/31/46 25/32/47 24/33/48
f 33/34/49 29/35/50 31/36/51
f 9/8/52 14/14/53 10/13/54 8/9/55
f 3/1/56 4/37/57 5/26/58
f 13/10/59 14/5/60 7/2/61
f 22/23/62 11/30/63 24/33/64 26/22/65
f 1/38/66 6/7/67 8/9/68 2/27/69
f 16/12/70 23/11/71 26/22/72 17/25/73
f 18/19/74 21/18/75 20/21/76 19/39/77
f 16/15/78 17/20/79 15/16/80
f 10/13/81 15/16/82 31/17/83 30/28/84
f 4/37/85 11/30/86 22/23/87 5/26/88
f 32/40/89 33/31/90 11/30/91 12/41/92
f 12/41/93 11/30/94 4/37/95 3/1/96
f 26/22/97 24/33/98 25/32/99 27/42/100
f 29/43/101 33/44/102 32/45/103 34/46/104
f 20/24/105 26/22/106 27/42/107 19/47/108
f 28/29/109 12/48/110 3/49/111 2/27/112
f 28/29/113 34/46/114 32/45/115 12/48/116
f 1/38/117 2/27/118 3/49/119
f 31/17/120 29/43/121 30/28/122
f 28/29/123 30/28/124 29/43/125 34/46/126
f 18/50/127 27/42/128 25/32/129 33/34/130
f 18/50/131 19/51/132 27/42/133
f 5/26/134 13/10/135 7/2/136 3/1/137
f 33/34/138 31/36/139 18/50/140
