# This file uses centimeters as units for non-parametric coordinates.

mtllib Swinging_Axe.mtl
g default
v -68.363403 87.055779 0.000000
v -61.867695 57.749397 0.000000
v -37.809319 35.479012 0.000000
v -5.804846 23.830185 0.000000
v 36.444012 36.386314 0.000000
v 61.399521 60.244904 0.000000
v 68.363403 88.120628 0.000000
v -6.019619 87.541321 2.480337
v -30.049284 87.354172 2.480339
v 26.504524 87.794632 2.480337
v -30.049284 87.354172 -2.480339
v -6.019619 87.541321 -2.480339
v 26.504524 87.794632 -2.480339
v 53.603539 88.005676 2.480339
v 55.943481 88.023903 2.267410
v 50.585117 66.221222 2.480339
v 52.757637 65.030182 2.207529
v 33.346783 48.379196 2.267221
v 32.476192 50.539585 2.480337
v -5.804843 35.859051 2.250445
v -5.741007 38.350983 2.480337
v -32.131283 47.240364 2.272839
v -30.939453 49.320400 2.480339
v -48.690830 66.448929 2.480339
v -50.804958 65.221199 2.271037
v -53.380898 87.172462 2.301497
v -51.045212 87.190651 2.480339
v 55.943481 88.023903 -2.267410
v 53.603539 88.005676 -2.480339
v 50.588478 66.219398 -2.480339
v 52.757637 65.030182 -2.207529
v -51.045212 87.190651 -2.480339
v -53.380898 87.172462 -2.301497
v -48.636860 66.475517 -2.480339
v -50.829487 65.204628 -2.266001
v -32.118454 47.266933 -2.277974
v -30.956118 49.295498 -2.480339
v -5.804843 35.859051 -2.250447
v -5.742186 38.327667 -2.480339
v 33.362404 48.318703 -2.255787
v 32.445099 50.595020 -2.480339
v 68.568237 88.902336 0.000000
v -68.431122 88.902336 0.000000
v 68.294121 90.301147 -1.398813
v 68.568237 90.091347 -1.189012
v 68.294121 88.902336 -1.978220
v 68.568237 88.902336 -1.681517
v 68.294121 87.503517 -1.398813
v 68.568237 87.713326 -1.189012
v 68.294121 86.924118 0.000000
v 68.568237 87.220818 0.000000
v 68.294121 87.503517 1.398813
v 68.568237 87.713326 1.189012
v 68.294121 88.902336 1.978220
v 68.568237 88.902336 1.681517
v 68.294121 90.301147 1.398813
v 68.568237 90.091347 1.189012
v 68.294121 90.880547 0.000000
v 68.568237 90.583847 0.000000
v -68.157005 90.301147 -1.398813
v -68.431122 90.091347 -1.189012
v -68.157005 88.902336 -1.978220
v -68.431122 88.902336 -1.681517
v -68.157005 87.503517 -1.398813
v -68.431122 87.713326 -1.189012
v -68.157005 86.924118 0.000000
v -68.431122 87.220818 0.000000
v -68.157005 87.503517 1.398813
v -68.431122 87.713326 1.189012
v -68.157005 88.902336 1.978220
v -68.431122 88.902336 1.681517
v -68.157005 90.301147 1.398813
v -68.431122 90.091347 1.189012
v -68.157005 90.880547 0.000000
v -68.431122 90.583847 0.000000
v 0.741692 96.968910 -2.282692
v -1.941774 96.968910 -1.410781
v -1.941774 96.968910 1.410781
v 0.741691 96.968910 2.282692
v 2.400164 96.968910 0.000000
v 0.741692 207.258484 -2.282692
v -1.941774 207.258484 -1.410781
v -1.941774 207.258484 1.410781
v 0.741691 207.258484 2.282692
v 2.400164 207.258484 0.000000
v -13.679030 82.448029 3.059006
v -13.679030 83.099632 3.710611
v -14.330635 83.099632 3.059006
v -7.165318 83.099632 3.710611
v -7.165318 82.448029 3.059006
v -14.330635 91.937012 3.042768
v -13.704668 92.148560 3.710611
v -13.902641 92.778946 3.042768
v -6.875647 97.097916 3.710611
v -7.165318 97.693153 3.059006
v -14.330635 91.943459 -3.050887
v -13.902641 92.778946 -3.042768
v -13.704668 92.148560 -3.710611
v -7.165318 97.693153 -3.059006
v -6.875647 97.097916 -3.710611
v -14.330635 83.099632 -3.059006
v -13.679030 83.099632 -3.710611
v -13.679030 82.448029 -3.059006
v -7.165318 83.099632 -3.710611
v -7.165318 82.448029 -3.059006
v 13.679030 82.448029 3.059006
v 14.330635 83.099632 3.059006
v 13.679030 83.099632 3.710611
v 13.704668 92.148560 3.710611
v 14.330635 91.943459 3.050887
v 13.907843 92.775154 3.050887
v 13.907843 92.775154 -3.050887
v 14.330635 91.937012 -3.042768
v 13.704668 92.148560 -3.710611
v 13.679030 83.099632 -3.710611
v 14.330635 83.099632 -3.059006
v 13.679030 82.448029 -3.059006
v 0.000000 82.448029 3.059006
v 0.000000 83.099632 3.710611
v 7.165318 83.099632 3.710611
v 7.165318 82.448029 3.059006
v 0.000000 99.042549 3.710611
v 0.000000 99.719711 3.059006
v 6.875647 97.097916 3.710611
v 7.165318 97.693153 3.059006
v 0.000000 99.719711 -3.059006
v 0.000000 99.042549 -3.710611
v 7.165318 97.693153 -3.059006
v 6.875647 97.097916 -3.710611
v 0.000000 83.099632 -3.710611
v 0.000000 82.448029 -3.059006
v 7.165318 83.099632 -3.710611
v 7.165318 82.448029 -3.059006
vt 0.222906 0.900571
vt 0.368958 0.820431
vt 0.215713 0.118523
vt 0.029212 0.118095
vt 0.215554 0.118951
vt 0.224889 0.909162
vt 0.031331 0.126663
vt 0.069316 0.280224
vt 0.219047 0.100346
vt 0.379540 0.217178
vt 0.442679 0.374314
vt 0.482237 0.642731
vt 0.381340 0.833958
vt 0.426083 0.379196
vt 0.112789 0.455973
vt 0.366327 0.228765
vt 0.171630 0.693850
vt 0.368977 0.820451
vt 0.463634 0.641068
vt 0.381340 0.833958
vt 0.247358 1.000000
vt 0.366162 0.228916
vt 0.069316 0.280224
vt 0.220265 0.000000
vt 0.027106 0.109580
vt 0.219045 0.100569
vt 0.454965 0.153642
vt 0.379710 0.217034
vt 0.529945 0.349771
vt 0.442679 0.374314
vt 0.575085 0.642959
vt 0.481766 0.642730
vt 0.432395 0.888108
vt 0.112789 0.455973
vt 0.464111 0.641151
vt 0.425939 0.379241
vt 0.220656 0.892049
vt 0.224889 0.909163
vt 0.031331 0.126663
vt 0.027106 0.109580
vt 0.000000 0.000000
vt 0.220656 0.892048
vt 0.171630 0.693850
vt 0.375000 0.314098
vt 0.377340 0.312500
vt 0.403906 0.312500
vt 0.406250 0.314098
vt 0.622656 0.312500
vt 0.625000 0.314095
vt 0.593750 0.314098
vt 0.596090 0.312500
vt 0.408590 0.312500
vt 0.435156 0.312500
vt 0.437500 0.314098
vt 0.439840 0.312500
vt 0.466406 0.312500
vt 0.468750 0.314098
vt 0.471090 0.312500
vt 0.497656 0.312500
vt 0.500000 0.314095
vt 0.502340 0.312500
vt 0.528906 0.312500
vt 0.531250 0.314098
vt 0.533590 0.312500
vt 0.560156 0.312500
vt 0.562500 0.314095
vt 0.564840 0.312500
vt 0.591406 0.312500
vt 0.625000 0.685905
vt 0.622656 0.687500
vt 0.596094 0.687500
vt 0.593750 0.685905
vt 0.377344 0.687500
vt 0.375000 0.685905
vt 0.406250 0.685905
vt 0.403906 0.687500
vt 0.408594 0.687500
vt 0.437500 0.685905
vt 0.435156 0.687500
vt 0.439844 0.687500
vt 0.468750 0.685905
vt 0.466407 0.687500
vt 0.471094 0.687500
vt 0.500000 0.685905
vt 0.497656 0.687500
vt 0.502344 0.687500
vt 0.531250 0.685905
vt 0.528906 0.687500
vt 0.533594 0.687500
vt 0.562500 0.685905
vt 0.560156 0.687500
vt 0.564844 0.687500
vt 0.591406 0.687500
vt 0.500000 0.023435
vt 0.593914 0.062336
vt 0.500000 0.156250
vt 0.406086 0.062336
vt 0.367185 0.156250
vt 0.406086 0.250164
vt 0.500000 0.289065
vt 0.593914 0.250164
vt 0.632815 0.156250
vt 0.593914 0.937664
vt 0.500000 0.976565
vt 0.500000 0.843750
vt 0.406086 0.937664
vt 0.367185 0.843750
vt 0.406086 0.749836
vt 0.500000 0.710935
vt 0.593914 0.749836
vt 0.632815 0.843750
vt 0.375000 0.312500
vt 0.425000 0.312500
vt 0.425000 0.687500
vt 0.375000 0.687500
vt 0.475000 0.312500
vt 0.475000 0.687500
vt 0.525000 0.312500
vt 0.525000 0.687500
vt 0.575000 0.312500
vt 0.575000 0.687500
vt 0.625000 0.312500
vt 0.625000 0.687500
vt 0.380684 0.978049
vt 0.375000 0.978049
vt 0.375000 0.771951
vt 0.380684 0.771951
vt 0.380684 0.016260
vt 0.380684 -0.000000
vt 0.437500 0.000000
vt 0.437500 0.010686
vt 0.353049 0.016260
vt 0.380460 0.237294
vt 0.352502 0.236781
vt 0.500000 0.000000
vt 0.500000 0.009432
vt 0.375000 0.271513
vt 0.378733 0.272498
vt 0.378733 0.477502
vt 0.375000 0.467919
vt 0.440027 0.240198
vt 0.437500 0.271951
vt 0.500000 0.240198
vt 0.500000 0.271951
vt 0.375000 0.513058
vt 0.380460 0.512706
vt 0.380684 0.733740
vt 0.375000 0.733740
vt 0.437500 0.478049
vt 0.440027 0.509802
vt 0.500000 0.478049
vt 0.500000 0.509802
vt 0.437500 0.739315
vt 0.437500 0.771951
vt 0.500000 0.740568
vt 0.500000 0.771951
vt 0.619316 0.000000
vt 0.619316 0.016260
vt 0.562500 0.010685
vt 0.562500 0.000000
vt 0.646951 0.016260
vt 0.646951 0.000000
vt 0.853049 -0.000000
vt 0.853049 0.016260
vt 0.647224 0.236942
vt 0.619540 0.237295
vt 0.621312 0.272224
vt 0.562500 0.271951
vt 0.559973 0.240198
vt 0.654026 0.250000
vt 0.852502 0.236781
vt 0.853439 0.250000
vt 0.621312 0.477776
vt 0.619540 0.512705
vt 0.559973 0.509802
vt 0.562500 0.478049
vt 0.875000 0.242060
vt 0.875000 0.016260
vt 0.619316 0.733740
vt 0.619316 0.771951
vt 0.562500 0.771951
vt 0.562500 0.739315
vt 0.437500 0.978049
vt 0.146951 0.016260
vt 0.147224 0.236942
vt 0.500000 0.978049
vt 0.562500 0.978049
vt 0.619316 0.978049
vn -0.007788 0.999970 0.000000
vn -0.007788 0.999970 0.000000
vn -0.007788 0.999970 0.000000
vn -0.007788 0.999970 0.000000
vn -0.007788 0.999970 0.000000
vn -0.007788 0.999970 0.000000
vn -0.007788 0.999970 0.000000
vn -0.007788 0.999970 0.000000
vn -0.007788 0.999970 0.000000
vn -0.007788 0.999970 0.000000
vn -0.007788 0.999970 0.000000
vn -0.007788 0.999970 0.000000
vn 0.186301 -0.037513 0.981776
vn 0.008792 -0.001332 0.999961
vn 0.009779 -0.005540 0.999937
vn 0.162963 -0.096815 0.981871
vn 0.003325 -0.006269 0.999975
vn 0.088487 -0.158547 0.983378
vn 0.000127 -0.007781 0.999970
vn 0.001201 -0.166222 0.986088
vn -0.003842 -0.005871 0.999975
vn -0.090141 -0.139606 0.986096
vn -0.009422 -0.005055 0.999943
vn -0.137162 -0.073934 0.987786
vn -0.007632 -0.000946 0.999970
vn -0.155848 -0.027626 0.987395
vn -0.007788 0.999970 0.000000
vn -0.007788 0.999970 0.000000
vn -0.007788 0.999970 0.000000
vn -0.007788 0.999970 0.000000
vn 0.008795 -0.001331 -0.999960
vn 0.186320 -0.037516 -0.981773
vn 0.162860 -0.096702 -0.981899
vn 0.009872 -0.005668 -0.999935
vn 0.088380 -0.158371 -0.983416
vn 0.003396 -0.006405 -0.999974
vn -0.155623 -0.027607 -0.987431
vn -0.007753 -0.000978 -0.999969
vn -0.009465 -0.005044 -0.999943
vn -0.137069 -0.073906 -0.987801
vn -0.003837 -0.005834 -0.999976
vn -0.090166 -0.139644 -0.986088
vn 0.000193 -0.007871 -0.999969
vn 0.001145 -0.166196 -0.986092
vn 0.198946 -0.040847 -0.979159
vn 0.172062 -0.101458 -0.979847
vn 0.000000 0.000000 -1.000000
vn -0.164425 -0.029695 -0.985943
vn -0.140658 -0.083232 -0.986554
vn -0.091696 -0.151123 -0.984253
vn 0.003851 -0.175210 -0.984524
vn 0.080837 -0.172360 -0.981712
vn -0.000000 0.000000 -1.000000
vn -0.000000 0.000000 -1.000000
vn 0.172015 -0.101519 0.979850
vn 0.198946 -0.040847 0.979159
vn 0.000000 -0.000000 1.000000
vn -0.164443 -0.029689 0.985940
vn -0.140672 -0.083206 0.986554
vn -0.091708 -0.151116 0.984253
vn 0.003959 -0.175213 0.984523
vn 0.080824 -0.172345 0.981715
vn 0.000000 -0.000000 1.000000
vn -0.000000 -0.000000 1.000000
vn -0.007788 0.999970 0.000000
vn -0.007788 0.999970 0.000000
vn 0.001644 0.707108 -0.707104
vn 0.944380 0.232538 -0.232536
vn 0.944380 0.000000 -0.328856
vn 0.001644 0.000000 -0.999999
vn 0.001644 0.999999 0.000000
vn 0.944380 0.328857 0.000000
vn 0.944380 -0.232536 -0.232537
vn 0.001644 -0.707106 -0.707106
vn 0.944380 -0.328856 0.000000
vn 0.001644 -0.999999 0.000000
vn 0.944380 -0.232536 0.232537
vn 0.001644 -0.707106 0.707106
vn 0.944380 -0.000000 0.328856
vn 0.001644 -0.000000 0.999999
vn 0.944380 0.232538 0.232536
vn 0.001644 0.707108 0.707104
vn -0.001644 0.707108 -0.707104
vn -0.944380 0.232536 -0.232536
vn -0.944379 0.328858 0.000001
vn -0.001644 0.999999 0.000000
vn -0.001644 0.000000 -0.999999
vn -0.944380 0.000000 -0.328856
vn -0.001644 -0.707106 -0.707106
vn -0.944381 -0.232534 -0.232537
vn -0.001644 -0.999999 0.000000
vn -0.944380 -0.328856 0.000000
vn -0.001644 -0.707106 0.707106
vn -0.944380 -0.232534 0.232537
vn -0.001644 -0.000000 0.999999
vn -0.944380 0.000000 0.328856
vn -0.001644 0.707108 0.707104
vn -0.944380 0.232537 0.232536
vn 1.000000 -0.000000 0.000000
vn -1.000000 0.000000 0.000000
vn 0.309017 0.000000 -0.951056
vn -0.809017 0.000000 -0.587785
vn -0.809017 0.000000 -0.587785
vn 0.309017 0.000000 -0.951056
vn -0.809017 0.000000 0.587785
vn -0.809017 0.000000 0.587785
vn 0.309017 0.000000 0.951057
vn 0.309017 0.000000 0.951057
vn 1.000000 0.000000 0.000000
vn 1.000000 0.000000 0.000000
vn -0.084943 -0.992290 0.090249
vn -0.993773 -0.064200 0.091069
vn -0.993770 -0.064245 -0.091072
vn -0.084943 -0.992290 -0.090249
vn -0.069285 -0.050391 0.996324
vn 0.000000 -0.995400 0.095812
vn 0.000000 -0.046848 0.998902
vn -0.068705 0.033563 0.997072
vn -0.994115 0.040535 0.100464
vn 0.000000 -0.995400 0.095811
vn -0.000000 -0.042550 0.999094
vn -0.620241 0.778050 0.099695
vn -0.620369 0.777961 -0.099592
vn -0.994115 0.040455 -0.100495
vn -0.027146 0.053967 0.998174
vn -0.444873 0.891164 0.088968
vn -0.000000 0.055949 0.998434
vn -0.000000 0.996246 0.086565
vn -0.068579 0.033541 -0.997082
vn -0.068888 -0.050420 -0.996350
vn -0.444873 0.891164 -0.088968
vn -0.027146 0.053967 -0.998174
vn -0.000000 0.996246 -0.086565
vn -0.000000 0.055949 -0.998434
vn 0.000000 -0.046848 -0.998902
vn 0.000000 -0.995400 -0.095812
vn 0.000000 -0.042550 -0.999094
vn 0.000000 -0.995400 -0.095811
vn 0.084943 -0.992290 0.090249
vn 0.068888 -0.050420 0.996350
vn -0.000000 -0.046848 0.998902
vn 0.000000 -0.995400 0.095812
vn 0.993770 -0.064245 0.091072
vn 0.084943 -0.992290 -0.090249
vn 0.993773 -0.064200 -0.091069
vn 0.994129 0.040190 0.100464
vn 0.068491 0.033456 0.997091
vn 0.620245 0.778078 0.099457
vn 0.445008 0.891106 0.088874
vn 0.027020 0.053819 0.998185
vn 0.994129 0.040269 -0.100434
vn 0.620116 0.778167 -0.099559
vn 0.068616 0.033478 -0.997081
vn 0.027020 0.053819 -0.998185
vn 0.445008 0.891106 -0.088874
vn 0.069285 -0.050391 -0.996323
vn 0.000000 -0.995400 -0.095812
vn 0.000000 -0.046848 -0.998902
g Axe Swing_Axe
usemtl initialShadingGroup
f 10/43/1 13/17/2 12/15/3 8/34/4
f 8/34/5 12/15/6 11/8/7 9/23/8
f 14/37/9 15/38/10 28/6/11 29/42/12
f 15/38/13 14/1/14 16/2/15 17/20/16
f 17/20/16 16/2/15 19/35/17 18/32/18
f 18/32/18 19/35/17 21/36/19 20/30/20
f 20/30/20 21/36/19 23/22/21 22/28/22
f 22/28/22 23/22/21 24/3/23 25/26/24
f 25/26/24 24/3/23 27/39/25 26/25/26
f 26/4/27 27/39/28 32/7/29 33/40/30
f 29/42/31 28/6/32 31/13/33 30/18/34
f 30/18/34 31/13/33 40/12/35 41/19/36
f 33/40/37 32/7/38 34/5/39 35/9/40
f 35/9/40 34/5/39 37/16/41 36/10/42
f 36/10/42 37/16/41 39/14/43 38/11/44
f 38/11/44 39/14/43 41/19/36 40/12/35
f 31/13/33 28/6/32 7/21/45 6/33/46
f 32/7/38 11/8/47 37/16/41 34/5/39
f 1/41/48 33/40/37 35/9/40 2/24/49
f 35/9/40 36/10/42 3/27/50 2/24/49
f 36/10/42 38/11/44 4/29/51 3/27/50
f 38/11/44 40/12/35 5/31/52 4/29/51
f 40/12/35 31/13/33 6/33/46 5/31/52
f 12/15/53 13/17/54 41/19/36 39/14/43
f 11/8/47 12/15/53 39/14/43 37/16/41
f 13/17/54 29/42/31 30/18/34 41/19/36
f 17/20/16 6/33/55 7/21/56 15/38/13
f 27/39/25 24/3/23 23/22/21 9/23/57
f 1/41/58 2/24/59 25/26/24 26/25/26
f 25/26/24 2/24/59 3/27/60 22/28/22
f 22/28/22 3/27/60 4/29/61 20/30/20
f 20/30/20 4/29/61 5/31/62 18/32/18
f 18/32/18 5/31/62 6/33/55 17/20/16
f 8/34/63 21/36/19 19/35/17 10/43/64
f 9/23/57 23/22/21 21/36/19 8/34/63
f 10/43/64 19/35/17 16/2/15 14/37/14
f 7/21/65 28/6/11 15/38/10
f 9/23/8 11/8/7 32/7/29 27/39/28
f 26/25/27 33/40/30 1/41/66
f 14/37/9 29/42/12 13/17/2 10/43/1
f 44/44/67 45/45/68 47/46/69 46/47/70
f 45/48/68 44/49/67 58/50/71 59/51/72
f 46/47/70 47/52/69 49/53/73 48/54/74
f 48/54/74 49/55/73 51/56/75 50/57/76
f 50/57/76 51/58/75 53/59/77 52/60/78
f 52/60/78 53/61/77 55/62/79 54/63/80
f 54/63/80 55/64/79 57/65/81 56/66/82
f 56/66/82 57/67/81 59/68/72 58/50/71
f 60/69/83 61/70/84 75/71/85 74/72/86
f 61/73/84 60/74/83 62/75/87 63/76/88
f 63/77/88 62/75/87 64/78/89 65/79/90
f 65/80/90 64/78/89 66/81/91 67/82/92
f 67/83/92 66/81/91 68/84/93 69/85/94
f 69/86/94 68/84/93 70/87/95 71/88/96
f 71/89/96 70/87/95 72/90/97 73/91/98
f 73/92/98 72/90/97 74/72/86 75/93/85
f 44/44/67 46/47/70 62/75/87 60/74/83
f 46/47/70 48/54/74 64/78/89 62/75/87
f 48/54/74 50/57/76 66/81/91 64/78/89
f 50/57/76 52/60/78 68/84/93 66/81/91
f 52/60/78 54/63/80 70/87/95 68/84/93
f 54/63/80 56/66/82 72/90/97 70/87/95
f 56/66/82 58/50/71 74/72/86 72/90/97
f 58/50/71 44/49/67 60/69/83 74/72/86
f 47/94/69 45/95/68 42/96/99
f 49/97/73 47/94/69 42/96/99
f 51/98/75 49/97/73 42/96/99
f 53/99/77 51/98/75 42/96/99
f 55/100/79 53/99/77 42/96/99
f 57/101/81 55/100/79 42/96/99
f 59/102/72 57/101/81 42/96/99
f 45/95/68 59/102/72 42/96/99
f 61/103/84 63/104/88 43/105/100
f 63/104/88 65/106/90 43/105/100
f 65/106/90 67/107/92 43/105/100
f 67/107/92 69/108/94 43/105/100
f 69/108/94 71/109/96 43/105/100
f 71/109/96 73/110/98 43/105/100
f 73/110/98 75/111/85 43/105/100
f 75/111/85 61/103/84 43/105/100
f 76/112/101 77/113/102 82/114/103 81/115/104
f 77/113/102 78/116/105 83/117/106 82/114/103
f 78/116/105 79/118/107 84/119/108 83/117/106
f 79/118/107 80/120/109 85/121/110 84/119/108
f 80/120/109 76/122/101 81/123/104 85/121/110
f 86/124/111 88/125/112 101/126/113 103/127/114
f 87/128/115 86/129/111 90/130/116 89/131/117
f 88/132/112 87/128/115 92/133/118 91/134/119
f 89/131/117 90/130/116 118/135/120 119/136/121
f 91/137/119 93/138/122 97/139/123 96/140/124
f 93/138/122 92/133/118 94/141/125 95/142/126
f 95/142/126 94/141/125 122/143/127 123/144/128
f 96/145/124 98/146/129 102/147/130 101/148/113
f 98/146/129 97/139/123 99/149/131 100/150/132
f 100/150/132 99/149/131 126/151/133 127/152/134
f 103/127/114 102/147/130 104/153/135 105/154/136
f 105/154/136 104/153/135 130/155/137 131/156/138
f 106/157/139 108/158/140 120/159/141 121/160/142
f 107/161/143 106/162/139 117/163/144 116/164/145
f 108/158/140 107/161/143 110/165/146 109/166/147
f 109/166/147 111/167/148 125/168/149 124/169/150
f 111/170/148 110/165/146 113/171/151 112/172/152
f 112/173/152 114/174/153 129/175/154 128/176/155
f 114/177/153 113/171/151 116/164/145 115/178/156
f 115/179/156 117/180/144 133/181/157 132/182/158
f 119/136/121 118/135/120 121/160/142 120/159/141
f 123/144/128 122/143/127 124/169/150 125/168/149
f 127/152/134 126/151/133 128/176/155 129/175/154
f 131/156/138 130/155/137 132/182/158 133/181/157
f 87/128/115 89/131/117 94/141/125 92/133/118
f 93/138/122 95/142/126 99/149/131 97/139/123
f 98/146/129 100/150/132 104/153/135 102/147/130
f 103/127/114 105/154/136 90/183/116 86/124/111
f 107/161/143 116/164/145 113/171/151 110/165/146
f 101/184/113 88/132/112 91/134/119 96/185/124
f 122/143/127 119/136/121 120/159/141 124/169/150
f 126/151/133 123/144/128 125/168/149 128/176/155
f 130/155/137 127/152/134 129/175/154 132/182/158
f 118/186/120 131/156/138 133/181/157 121/187/142
f 94/141/125 89/131/117 119/136/121 122/143/127
f 99/149/131 95/142/126 123/144/128 126/151/133
f 104/153/135 100/150/132 127/152/134 130/155/137
f 90/183/116 105/154/136 131/156/138 118/186/120
f 124/169/150 120/159/141 108/158/140 109/166/147
f 128/176/155 125/168/149 111/167/148 112/173/152
f 132/182/158 129/175/154 114/174/153 115/179/156
f 121/187/142 133/181/157 117/180/144 106/188/139
f 86/129/111 87/128/115 88/132/112
f 91/134/119 92/133/118 93/138/122
f 96/140/124 97/139/123 98/146/129
f 101/148/113 102/147/130 103/127/114
f 106/162/139 107/161/143 108/158/140
f 109/166/147 110/165/146 111/170/148
f 112/172/152 113/171/151 114/177/153
f 115/178/156 116/164/145 117/163/144
